<svg xmlns="http://www.w3.org/2000/svg" viewBox="0 0 32 32" fill="none">
  <rect width="32" height="32" rx="8" fill="#4F46E5"/>
  <path d="M8 8h10a6 6 0 0 1 6 6v10a2 2 0 0 1-2 2H12a4 4 0 0 1-4-4V8z" fill="white" fill-opacity="0.2"/>
  <path d="M8 8v16a4 4 0 0 0 4 4h12a2 2 0 0 0 2-2V14a6 6 0 0 0-6-6H8z" stroke="white" stroke-width="1.5" stroke-linejoin="round"/>
  <line x1="12" y1="14" x2="20" y2="14" stroke="white" stroke-width="1.5" stroke-linecap="round"/>
  <line x1="12" y1="18" x2="20" y2="18" stroke="white" stroke-width="1.5" stroke-linecap="round"/>
  <line x1="12" y1="22" x2="17" y2="22" stroke="white" stroke-width="1.5" stroke-linecap="round"/>
</svg>
